<mxfile host="app.diagrams.net" modified="2022-04-29T10:51:25.151Z" agent="5.0 (Windows NT 10.0; Win64; x64) AppleWebKit/537.36 (KHTML, like Gecko) Chrome/100.0.4896.127 Safari/537.36 Edg/100.0.1185.50" etag="NlY8oYQX1s8jXFuOgRgj" version="17.4.6" type="github">
  <diagram id="M6mnQzZPT9rxvh1CZX1k" name="Page-1">
    <mxGraphModel dx="1038" dy="579" grid="1" gridSize="10" guides="1" tooltips="1" connect="1" arrows="1" fold="1" page="1" pageScale="1" pageWidth="850" pageHeight="1100" math="0" shadow="0">
      <root>
        <mxCell id="0" />
        <mxCell id="1" parent="0" />
        <mxCell id="lzRLfwxq-jTOg__t5AKk-3" value="" style="edgeStyle=orthogonalEdgeStyle;rounded=0;orthogonalLoop=1;jettySize=auto;html=1;" edge="1" parent="1" source="lzRLfwxq-jTOg__t5AKk-1" target="lzRLfwxq-jTOg__t5AKk-2">
          <mxGeometry relative="1" as="geometry" />
        </mxCell>
        <mxCell id="lzRLfwxq-jTOg__t5AKk-1" value="start" style="rounded=1;whiteSpace=wrap;html=1;" vertex="1" parent="1">
          <mxGeometry x="80" y="30" width="90" height="20" as="geometry" />
        </mxCell>
        <mxCell id="lzRLfwxq-jTOg__t5AKk-5" value="" style="edgeStyle=orthogonalEdgeStyle;rounded=0;orthogonalLoop=1;jettySize=auto;html=1;" edge="1" parent="1" source="lzRLfwxq-jTOg__t5AKk-2" target="lzRLfwxq-jTOg__t5AKk-4">
          <mxGeometry relative="1" as="geometry" />
        </mxCell>
        <mxCell id="lzRLfwxq-jTOg__t5AKk-2" value="get the pop&lt;span style=&quot;color: rgba(0 , 0 , 0 , 0) ; font-family: monospace ; font-size: 0px&quot;&gt;%3CmxGraphModel%3E%3Croot%3E%3CmxCell%20id%3D%220%22%2F%3E%3CmxCell%20id%3D%221%22%20parent%3D%220%22%2F%3E%3CmxCell%20id%3D%222%22%20value%3D%22call%20identify%20target%20agent%22%20style%3D%22rounded%3D1%3BwhiteSpace%3Dwrap%3Bhtml%3D1%3BfillColor%3D%23f8cecc%3BgradientColor%3D%23ea6b66%3BstrokeColor%3D%23b85450%3B%22%20vertex%3D%221%22%20parent%3D%221%22%3E%3CmxGeometry%20x%3D%22750%22%20y%3D%22160%22%20width%3D%22120%22%20height%3D%2260%22%20as%3D%22geometry%22%2F%3E%3C%2FmxCell%3E%3C%2Froot%3E%3C%2FmxGraphModel%3E&lt;/span&gt;&lt;span style=&quot;color: rgba(0 , 0 , 0 , 0) ; font-family: monospace ; font-size: 0px&quot;&gt;%3CmxGraphModel%3E%3Croot%3E%3CmxCell%20id%3D%220%22%2F%3E%3CmxCell%20id%3D%221%22%20parent%3D%220%22%2F%3E%3CmxCell%20id%3D%222%22%20value%3D%22call%20identify%20target%20agent%22%20style%3D%22rounded%3D1%3BwhiteSpace%3Dwrap%3Bhtml%3D1%3BfillColor%3D%23f8cecc%3BgradientColor%3D%23ea6b66%3BstrokeColor%3D%23b85450%3B%22%20vertex%3D%221%22%20parent%3D%221%22%3E%3CmxGeometry%20x%3D%22750%22%20y%3D%22160%22%20width%3D%22120%22%20height%3D%2260%22%20as%3D%22geometry%22%2F%3E%3C%2FmxCell%3E%3C%2Froot%3E%3C%2FmxGraphModel%3E&lt;/span&gt;" style="rounded=0;whiteSpace=wrap;html=1;" vertex="1" parent="1">
          <mxGeometry x="65" y="80" width="120" height="60" as="geometry" />
        </mxCell>
        <mxCell id="lzRLfwxq-jTOg__t5AKk-7" value="" style="edgeStyle=orthogonalEdgeStyle;rounded=0;orthogonalLoop=1;jettySize=auto;html=1;" edge="1" parent="1" source="lzRLfwxq-jTOg__t5AKk-4" target="lzRLfwxq-jTOg__t5AKk-6">
          <mxGeometry relative="1" as="geometry" />
        </mxCell>
        <mxCell id="lzRLfwxq-jTOg__t5AKk-4" value="call&amp;nbsp;destinationReach&lt;br&gt;for leader" style="rounded=1;whiteSpace=wrap;html=1;fillColor=#f8cecc;gradientColor=#ea6b66;strokeColor=#b85450;" vertex="1" parent="1">
          <mxGeometry x="65" y="170" width="120" height="60" as="geometry" />
        </mxCell>
        <mxCell id="lzRLfwxq-jTOg__t5AKk-9" value="" style="edgeStyle=orthogonalEdgeStyle;rounded=0;orthogonalLoop=1;jettySize=auto;html=1;" edge="1" parent="1" source="lzRLfwxq-jTOg__t5AKk-6" target="lzRLfwxq-jTOg__t5AKk-8">
          <mxGeometry relative="1" as="geometry">
            <Array as="points">
              <mxPoint x="220" y="310" />
              <mxPoint x="220" y="70" />
            </Array>
          </mxGeometry>
        </mxCell>
        <mxCell id="lzRLfwxq-jTOg__t5AKk-6" value="FOR pop grp family" style="rhombus;whiteSpace=wrap;html=1;" vertex="1" parent="1">
          <mxGeometry x="85" y="270" width="80" height="80" as="geometry" />
        </mxCell>
        <mxCell id="lzRLfwxq-jTOg__t5AKk-11" value="yes" style="edgeStyle=orthogonalEdgeStyle;rounded=0;orthogonalLoop=1;jettySize=auto;html=1;" edge="1" parent="1" source="lzRLfwxq-jTOg__t5AKk-8" target="lzRLfwxq-jTOg__t5AKk-10">
          <mxGeometry relative="1" as="geometry" />
        </mxCell>
        <mxCell id="lzRLfwxq-jTOg__t5AKk-8" value="IF pop is follower or child" style="rhombus;whiteSpace=wrap;html=1;" vertex="1" parent="1">
          <mxGeometry x="240" y="30" width="80" height="80" as="geometry" />
        </mxCell>
        <mxCell id="lzRLfwxq-jTOg__t5AKk-13" value="yes" style="edgeStyle=orthogonalEdgeStyle;rounded=0;orthogonalLoop=1;jettySize=auto;html=1;" edge="1" parent="1" source="lzRLfwxq-jTOg__t5AKk-10" target="lzRLfwxq-jTOg__t5AKk-12">
          <mxGeometry relative="1" as="geometry" />
        </mxCell>
        <mxCell id="lzRLfwxq-jTOg__t5AKk-10" value="IF pop is group mode" style="rhombus;whiteSpace=wrap;html=1;" vertex="1" parent="1">
          <mxGeometry x="240" y="150" width="80" height="80" as="geometry" />
        </mxCell>
        <mxCell id="lzRLfwxq-jTOg__t5AKk-15" style="edgeStyle=orthogonalEdgeStyle;rounded=0;orthogonalLoop=1;jettySize=auto;html=1;entryX=0.5;entryY=0;entryDx=0;entryDy=0;" edge="1" parent="1" source="lzRLfwxq-jTOg__t5AKk-12" target="lzRLfwxq-jTOg__t5AKk-14">
          <mxGeometry relative="1" as="geometry" />
        </mxCell>
        <mxCell id="lzRLfwxq-jTOg__t5AKk-12" value="set the pop target" style="whiteSpace=wrap;html=1;" vertex="1" parent="1">
          <mxGeometry x="230" y="280" width="120" height="60" as="geometry" />
        </mxCell>
        <mxCell id="lzRLfwxq-jTOg__t5AKk-17" value="" style="edgeStyle=orthogonalEdgeStyle;rounded=0;orthogonalLoop=1;jettySize=auto;html=1;" edge="1" parent="1" source="lzRLfwxq-jTOg__t5AKk-14" target="lzRLfwxq-jTOg__t5AKk-16">
          <mxGeometry relative="1" as="geometry" />
        </mxCell>
        <mxCell id="lzRLfwxq-jTOg__t5AKk-20" style="edgeStyle=orthogonalEdgeStyle;rounded=0;orthogonalLoop=1;jettySize=auto;html=1;entryX=0;entryY=0.5;entryDx=0;entryDy=0;" edge="1" parent="1" source="lzRLfwxq-jTOg__t5AKk-14" target="lzRLfwxq-jTOg__t5AKk-6">
          <mxGeometry relative="1" as="geometry">
            <Array as="points">
              <mxPoint x="450" y="110" />
              <mxPoint x="530" y="110" />
              <mxPoint x="530" y="390" />
              <mxPoint x="65" y="390" />
              <mxPoint x="65" y="310" />
            </Array>
          </mxGeometry>
        </mxCell>
        <mxCell id="lzRLfwxq-jTOg__t5AKk-21" value="next pop in grp" style="edgeLabel;html=1;align=center;verticalAlign=middle;resizable=0;points=[];" vertex="1" connectable="0" parent="lzRLfwxq-jTOg__t5AKk-20">
          <mxGeometry x="-0.5401" y="4" relative="1" as="geometry">
            <mxPoint as="offset" />
          </mxGeometry>
        </mxCell>
        <mxCell id="lzRLfwxq-jTOg__t5AKk-14" value="set pop position" style="rounded=1;whiteSpace=wrap;html=1;fillColor=#ffcc99;strokeColor=#36393d;" vertex="1" parent="1">
          <mxGeometry x="390" y="40" width="120" height="60" as="geometry" />
        </mxCell>
        <mxCell id="lzRLfwxq-jTOg__t5AKk-16" value="end" style="ellipse;whiteSpace=wrap;html=1;" vertex="1" parent="1">
          <mxGeometry x="410" y="140" width="80" height="40" as="geometry" />
        </mxCell>
      </root>
    </mxGraphModel>
  </diagram>
</mxfile>
